<?xml version="1.0" encoding="utf-8"?>
<!-- Generator: Adobe Illustrator 17.1.0, SVG Export Plug-In . SVG Version: 6.00 Build 0)  -->
<!DOCTYPE svg PUBLIC "-//W3C//DTD SVG 1.1//EN" "http://www.w3.org/Graphics/SVG/1.1/DTD/svg11.dtd">
<svg version="1.1" id="Layer_1" xmlns="http://www.w3.org/2000/svg" xmlns:xlink="http://www.w3.org/1999/xlink" x="0px" y="0px"
	 viewBox="0 0 197.7 106" enable-background="new 0 0 197.7 106" xml:space="preserve">
<path opacity="0.5" fill="#FFFFFF" d="M162.5,65.8v-13h-28.9L104.9,24v-5.4h-2.3v-4h18.2V0h-18.2h-7.4v14.5v4h-2.3V24L64.1,52.9
	H34.8v13H0V106h34.8H56h98.8h7.8h35.1V65.8H162.5z M15.1,99.6H7.4V73.1h7.6V99.6z M28.2,99.6h-7.6V73.1h7.6V99.6z M49.8,96.5h-7.6
	V59.4h7.6V96.5z M63,96.5h-7.6V59.4H63V96.5z M76.2,96.5h-7.6V59.4h7.6V96.5z M89.3,96.5h-7.6V72.8h7.6V96.5z M102.5,96.5h-7.6V72.8
	h7.6V96.5z M107.9,59.3h-5.4V66h-7.6v-6.7h-5.4v-6.4H74.1l21-21v12h7.4v-12l21,21h-15.6V59.3z M115.7,96.5H108V72.8h7.6V96.5z
	 M128.9,96.5h-7.6V59.4h7.6V96.5z M142,96.5h-7.6V59.4h7.6V96.5z M155.2,96.5h-7.6V59.4h7.6V96.5z M177.2,99.6h-7.6V73.1h7.6V99.6z
	 M190.3,99.6h-7.6V73.1h7.6V99.6z"/>
</svg>
